<svg xmlns="http://www.w3.org/2000/svg" xmlns:ev="http://www.w3.org/2001/xml-events" xmlns:xlink="http://www.w3.org/1999/xlink" width="778.568" height="725.485" class="st19" color-interpolation-filters="sRGB" viewBox="0 0 583.926 544.114" xml:space="preserve"><style type="text/css">.st1{fill:#f59d56;stroke:#000;stroke-linecap:round;stroke-linejoin:round;stroke-width:.75}.st2{fill:#fff;font-family:Calibri;font-size:1.00001em}.st3{font-size:1em}.st4,.st5,.st6{stroke-linecap:round;stroke-linejoin:round}.st4{fill:#f59d56;stroke:#00b050;stroke-width:2.25}.st5,.st6{fill:#0070c0}.st5{stroke:#00b050;stroke-width:2.25}.st6{stroke-width:.75}.st6,.st7,.st8{stroke:#000}.st7{marker-end:url(#mrkr2-52);stroke-dasharray:5.25,3.75;stroke-linecap:round;stroke-linejoin:round;stroke-width:.75}.st8{fill:#000;fill-opacity:1;stroke-opacity:1;stroke-width:.22935779816514}.st9{fill:#fff;stroke:none;stroke-linecap:butt;stroke-width:7.2}.st10{fill:#000;font-family:Calibri;font-size:.666664em}.st11{marker-end:url(#mrkr2-52);stroke:#000;stroke-linecap:round;stroke-linejoin:round;stroke-width:.75}.st12,.st13{stroke:#00b050}.st12{marker-end:url(#mrkr2-125);stroke-linecap:round;stroke-linejoin:round;stroke-width:.75}.st13{fill:#00b050;fill-opacity:1;stroke-opacity:1;stroke-width:.22935779816514}.st14{fill:none;stroke:none;stroke-linecap:round;stroke-linejoin:round;stroke-width:.75}.st15{fill:#000;font-family:Calibri;font-size:1.00001em}.st16{stroke:#ffc000;stroke-linecap:round;stroke-linejoin:round;stroke-width:.75}.st17,.st18{fill:#ea700d;font-family:Calibri;font-size:1.00001em}.st18{fill:#0070c0}.st19{fill:none;fill-rule:evenodd;font-size:12px;overflow:visible;stroke-linecap:square;stroke-miterlimit:3}</style><defs id="Markers"><g id="lend2"><path d="M 1 1 L 0 0 L 1 -1 L 1 1" style="stroke:none"/></g><marker id="mrkr2-52" class="st8" markerUnits="strokeWidth" orient="auto" overflow="visible" refX="-4.36"><use transform="scale(-4.36,-4.36)" xlink:href="#lend2"/></marker><marker id="mrkr2-125" class="st13" markerUnits="strokeWidth" orient="auto" overflow="visible" refX="-4.36"><use transform="scale(-4.36,-4.36)" xlink:href="#lend2"/></marker></defs><g><title>Page-1</title><g id="shape1-1" transform="translate(255.051,-432.375)"><title>Sheet.1</title><desc>Object A1</desc><rect width="54" height="63" x="0" y="481.114" class="st1"/><text x="10.91" y="509.01" class="st2">Object<tspan x="20.49" class="st3" dy="1.2em">A1</tspan></text></g><g id="shape2-5" transform="translate(341.676,-432.375)"><title>Sheet.2</title><desc>Object A2</desc><rect width="54" height="63" x="0" y="481.114" class="st1"/><text x="10.91" y="509.01" class="st2">Object<tspan x="20.49" class="st3" dy="1.2em">A2</tspan></text></g><g id="shape3-9" transform="translate(453.051,-432.375)"><title>Sheet.3</title><desc>Object B</desc><rect width="54" height="63" x="0" y="481.114" class="st1"/><text x="10.91" y="509.01" class="st2">Object<tspan x="23.74" class="st3" dy="1.2em">B</tspan></text></g><g id="shape4-13" transform="translate(255.051,-324.375)"><title>Sheet.4</title><desc>RuntimeAssembly A</desc><rect width="140.625" height="63" x="0" y="481.114" class="st1"/><text x="26.4" y="509.01" class="st2">RuntimeAssembly<tspan x="66.84" class="st3" dy="1.2em">A</tspan></text></g><g id="shape5-17" transform="translate(409.738,-324.375)"><title>Sheet.5</title><desc>RuntimeAssembly B</desc><rect width="140.625" height="63" x="0" y="481.114" class="st1"/><text x="26.4" y="509.01" class="st2">RuntimeAssembly<tspan x="67.05" class="st3" dy="1.2em">B</tspan></text></g><g id="shape6-21" transform="translate(48.0507,-234.375)"><title>Sheet.6</title><desc>LoaderAllocator</desc><rect width="140.625" height="63" x="0" y="481.114" class="st4"/><text x="31.46" y="516.21" class="st2">LoaderAllocator</text></g><g id="shape7-24" transform="translate(255.051,-234.375)"><title>Sheet.7</title><desc>LoaderAllocatorScout (finalizable)</desc><rect width="140.625" height="63" x="0" y="481.114" class="st4"/><text x="17.84" y="509.01" class="st2">LoaderAllocatorScout<tspan x="41.93" class="st3" dy="1.2em">(finalizable)</tspan></text></g><g id="shape8-28" transform="translate(409.738,-234.375)"><title>Sheet.8</title><desc>AssemblyLoadContext (finalizable)</desc><rect width="140.625" height="63" x="0" y="481.114" class="st1"/><text x="16.29" y="509.01" class="st2">AssemblyLoadContext<tspan x="41.93" class="st3" dy="1.2em">(finalizable)</tspan></text></g><g id="shape9-32" transform="translate(48.0507,-108.375)"><title>Sheet.9</title><desc>AssemblyLoaderAllocator (ref counted)</desc><rect width="140.625" height="63" x="0" y="481.114" class="st5"/><text x="8.27" y="509.01" class="st2">AssemblyLoaderAllocator<tspan x="38.26" class="st3" dy="1.2em">(ref counted)</tspan></text></g><g id="shape10-36" transform="translate(318.051,-108.375)"><title>Sheet.10</title><desc>CustomAssemblyBinder</desc><rect width="198" height="63" x="0" y="481.114" class="st6"/><text x="41.12" y="516.21" class="st2">CustomAssemblyBinder</text></g><g id="shape11-39" transform="translate(48.0507,-18.375)"><title>Sheet.11</title><desc>DomainAssembly A</desc><rect width="140.625" height="63" x="0" y="481.114" class="st6"/><text x="28.07" y="509.01" class="st2">DomainAssembly<tspan x="66.84" class="st3" dy="1.2em">A</tspan></text></g><g id="shape12-43" transform="translate(246.051,-18.375)"><title>Sheet.12</title><desc>DomainAssembly B</desc><rect width="140.625" height="63" x="0" y="481.114" class="st6"/><text x="28.07" y="509.01" class="st2">DomainAssembly<tspan x="67.05" class="st3" dy="1.2em">B</tspan></text></g><g id="shape14-47" transform="translate(255.051,-463.875)"><title>Dynamic connector</title><desc>Via MethodTable</desc><path d="M0 544.11 L-180.24 544.11 L-180.24 707.34" class="st7"/><rect width="55.89" height="9.6" x="-117.945" y="540.44" class="st9"/><text x="-117.94" y="547.64" class="st10">Via MethodTable</text></g><g id="shape15-55" transform="translate(368.676,-495.375)"><title>Dynamic connector.15</title><desc>Via MethodTable</desc><path d="M0 544.11 L0 530.61 L-301.65 530.61 L-301.65 738.84" class="st7"/><rect width="55.89" height="9.6" x="-231.57" y="525.815" class="st9"/><text x="-231.57" y="533.01" class="st10">Via MethodTable</text></g><g id="shape16-62" transform="translate(480.051,-495.375)"><title>Dynamic connector.16</title><desc>Via MethodTable</desc><path d="M0 544.11 L0 521.61 L-420.32 521.61 L-420.32 738.84" class="st7"/><rect width="55.89" height="9.6" x="-342.945" y="517.377" class="st9"/><text x="-342.94" y="524.58" class="st10">Via MethodTable</text></g><g id="shape21-69" transform="translate(131.742,-297.375)"><title>Dynamic connector.21</title><desc>Reference</desc><path d="M0 544.11 L0 427.84 L348.31 427.84 L348.31 450.84" class="st11"/><rect width="33.081" height="9.6" x="37.019" y="422.315" class="st9"/><text x="37.02" y="429.51" class="st10">Reference</text></g><g id="shape22-76" transform="translate(140.97,-297.375)"><title>Dynamic connector.22</title><desc>Reference</desc><path d="M0 544.11 L0 440.49 L182.71 440.49 L182.71 450.84" class="st11"/><rect width="33.081" height="9.6" x="29.812" y="435.693" class="st9"/><text x="29.81" y="442.89" class="st10">Reference</text></g><g id="shape23-83" transform="translate(255.051,-355.875)"><title>Dynamic connector.23</title><desc>Reference (sync root)</desc><path d="M0 544.11 L-92.68 544.11 L-92.68 599.34" class="st11"/><rect width="34.902" height="19.2" x="-41.076" y="534.515" class="st9"/><text x="-40.17" y="541.71" class="st10">Reference<tspan x="-41.08" class="st3" dy="1.2em">(sync root)</tspan></text></g><g id="shape24-91" transform="translate(480.051,-324.375)"><title>Dynamic connector.24</title><desc>Reference (sync root)</desc><path d="M0 544.11 L0 557.01 L-306 557.01 L-306 567.84" class="st11"/><rect width="34.902" height="19.2" x="-171.059" y="547.406" class="st9"/><text x="-170.15" y="554.61" class="st10">Reference<tspan x="-171.06" class="st3" dy="1.2em">(sync root)</tspan></text></g><g id="shape25-99" transform="translate(188.676,-256.875)"><title>Dynamic connector.25</title><desc>Reference</desc><path d="M0 535.11 L63.1 535.11" class="st11"/><rect width="33.081" height="9.6" x="16.647" y="530.315" class="st9"/><text x="16.65" y="537.51" class="st10">Reference</text></g><g id="shape26-106" transform="translate(111.051,-171.375)"><title>Dynamic connector.26</title><desc>Weak handle</desc><path d="M9 544.11 L9 484.38" class="st11"/><rect width="42.632" height="9.6" x="-10.629" y="530.315" class="st9"/><text x="-10.63" y="537.51" class="st10">Weak handle</text></g><g id="shape27-113" transform="translate(188.676,-147.78)"><title>Dynamic connector.27</title><desc>Pointer</desc><path d="M0 535.11 L126.1 535.11" class="st11"/><rect width="23.84" height="9.6" x="52.768" y="530.315" class="st9"/><text x="52.77" y="537.51" class="st10">Pointer</text></g><g id="shape28-120" transform="translate(318.051,-117.375)"><title>Dynamic connector.28</title><desc>Pointer</desc><path d="M0 535.11 L-126.1 535.11" class="st12"/><rect width="23.84" height="9.6" x="-76.607" y="530.315" class="st9"/><text x="-76.61" y="537.51" class="st10">Pointer</text></g><g id="shape29-128" transform="translate(109.363,-108.375)"><title>Dynamic connector.29</title><desc>Pointer</desc><path d="M9 544.11 L9 567.84" class="st11"/><rect width="23.84" height="9.6" x="-2.92" y="552.815" class="st9"/><text x="-2.92" y="560.01" class="st10">Pointer</text></g><g id="shape30-135" transform="translate(188.676,-40.875)"><title>Dynamic connector.30</title><desc>Pointer</desc><path d="M0 535.11 L54.1 535.11" class="st12"/><rect width="23.84" height="9.6" x="16.768" y="530.315" class="st9"/><text x="16.77" y="537.51" class="st10">Pointer</text></g><g id="shape31-142" transform="translate(386.676,-42)"><title>Dynamic connector.31</title><path d="M0 535.11 L45.1 535.11" class="st12"/></g><g id="shape32-147" transform="translate(410.999,-171.375)"><title>Dynamic connector.32</title><desc>Long weak handle</desc><path d="M9 544.11 L9 484.38" class="st11"/><rect width="58.593" height="9.6" x="-19.545" y="525.065" class="st9"/><text x="-19.55" y="532.26" class="st10">Long weak handle</text></g><g id="shape33-154" transform="translate(273.613,-234.375)"><title>Dynamic connector.33</title><desc>Pointer</desc><path d="M0 544.11 L-100.71 605.41" class="st11"/><rect width="23.84" height="9.6" x="-27.107" y="548.315" class="st9"/><text x="-27.11" y="555.51" class="st10">Pointer</text></g><g id="shape34-161" transform="translate(342.379,-171.375)"><title>Dynamic connector.34</title><desc>Strong handle</desc><path d="M0 544.11 L-98.99 502.36 A3 3 -180 0 0 -104.51 500.03 L-150.69 480.55" class="st12"/><rect width="45.398" height="9.6" x="-48.105" y="528.879" class="st9"/><text x="-48.11" y="536.08" class="st10">Strong handle</text></g><g id="shape35-168" transform="translate(431.676,-43.0313)"><title>Sheet.35</title><desc>...</desc><rect width="24.75" height="22.688" x="0" y="521.427" class="st14"/><text x="7.83" y="536.37" class="st15">...</text></g><g id="shape36-171" transform="translate(25.6723,-193.449)"><title>Dynamic connector.36</title><path d="M0 535.54 L91.38 535.4 A3 3 0 1 1 97.38 535.39 L192.3 535.24 A3 3 0 1 1 198.3 535.23 L240.14 535.16 A3 3 0 0 1 246.14 535.15 L391.33 534.92 A3 3 0 1 1 397.33 534.91 L466.33 534.8 A3 3 0 0 1 472.33 534.8 L539.88 534.69" class="st16"/></g><g id="shape37-174" transform="translate(25.6723,-207.375)"><title>Sheet.37</title><desc>Managed side</desc><rect width="88.313" height="14.063" x="0" y="530.052" class="st14"/><text x="9.95" y="540.68" class="st17">Managed side</text></g><g id="shape38-177" transform="translate(18.375,-180.375)"><title>Sheet.38</title><desc>Native side</desc><rect width="88.313" height="14.063" x="0" y="530.052" class="st14"/><text x="17.11" y="540.68" class="st18">Native side</text></g><g id="shape39-180" transform="translate(486,-171.375)"><title>Dynamic connector.39</title><desc>Strong handle (only during unload)</desc><path d="M9 544.11 L9 484.38" class="st11"/><rect width="65.843" height="19.2" x="-23.922" y="519.14" class="st9"/><text x="-13.7" y="526.34" class="st10">Strong handle<tspan x="-23.92" class="st3" dy="1.2em">(only during unload)</tspan></text></g></g></svg>